<svg width="18" height="21" viewBox="0 0 18 21" fill="none" xmlns="http://www.w3.org/2000/svg">
<path d="M15 2.48003C13.4087 0.888734 11.2504 -0.00524904 8.99999 -0.00524902C6.74955 -0.00524901 4.59129 0.888734 2.99999 2.48003C1.40869 4.07133 0.514709 6.2296 0.514709 8.48003C0.514709 10.7305 1.40869 12.8887 2.99999 14.48L8.26999 19.76C8.36295 19.8538 8.47356 19.9282 8.59541 19.9789C8.71727 20.0297 8.84798 20.0558 8.97999 20.0558C9.112 20.0558 9.24271 20.0297 9.36457 19.9789C9.48643 19.9282 9.59703 19.8538 9.68999 19.76L15 14.43C16.5846 12.8454 17.4749 10.6961 17.4749 8.45503C17.4749 6.21398 16.5846 4.06471 15 2.48003ZM13.57 13L8.99999 17.59L4.42999 13C3.52713 12.0963 2.91247 10.9453 2.66369 9.69232C2.4149 8.43937 2.54318 7.14078 3.03229 5.96071C3.52141 4.78065 4.34941 3.77208 5.41162 3.06251C6.47383 2.35294 7.72258 1.97421 8.99999 1.97421C10.2774 1.97421 11.5261 2.35294 12.5884 3.06251C13.6506 3.77208 14.4786 4.78065 14.9677 5.96071C15.4568 7.14078 15.5851 8.43937 15.3363 9.69232C15.0875 10.9453 14.4728 12.0963 13.57 13ZM5.99999 5.41003C5.19271 6.2198 4.73939 7.3166 4.73939 8.46003C4.73939 9.60347 5.19271 10.7003 5.99999 11.51C6.59975 12.1108 7.36358 12.5211 8.19564 12.6894C9.0277 12.8578 9.89094 12.7766 10.6771 12.4562C11.4632 12.1358 12.1372 11.5903 12.6145 10.8883C13.0918 10.1863 13.3511 9.3589 13.36 8.51003C13.3645 7.94324 13.2553 7.38129 13.0389 6.85742C12.8225 6.33355 12.5032 5.85839 12.1 5.46003C11.7037 5.05461 11.2311 4.73157 10.7094 4.5095C10.1878 4.28743 9.62733 4.17071 9.06039 4.16606C8.49345 4.16141 7.93119 4.26893 7.40596 4.48242C6.88073 4.69591 6.40291 5.01116 5.99999 5.41003ZM10.69 10.09C10.311 10.4748 9.8102 10.7159 9.27312 10.7723C8.73603 10.8286 8.19605 10.6967 7.7455 10.399C7.29494 10.1012 6.96179 9.65627 6.803 9.14012C6.64421 8.62396 6.66964 8.06867 6.87495 7.56919C7.08026 7.06971 7.45269 6.65705 7.92858 6.40177C8.40446 6.14649 8.95424 6.06444 9.48393 6.16965C10.0136 6.27486 10.4903 6.56079 10.8325 6.97856C11.1747 7.39634 11.3612 7.92 11.36 8.46003C11.3454 9.0773 11.0865 9.66356 10.64 10.09H10.69Z" fill="#A53DFF"/>
</svg>
