<svg width="24" height="28" viewBox="0 0 24 28" fill="none" xmlns="http://www.w3.org/2000/svg">
<path d="M17.3333 16.6667H6.66667C6.31304 16.6667 5.97391 16.8071 5.72386 17.0572C5.47381 17.3072 5.33333 17.6464 5.33333 18C5.33333 18.3536 5.47381 18.6928 5.72386 18.9428C5.97391 19.1928 6.31304 19.3333 6.66667 19.3333H17.3333C17.687 19.3333 18.0261 19.1928 18.2761 18.9428C18.5262 18.6928 18.6667 18.3536 18.6667 18C18.6667 17.6464 18.5262 17.3072 18.2761 17.0572C18.0261 16.8071 17.687 16.6667 17.3333 16.6667ZM17.3333 11.3333H9.33333C8.97971 11.3333 8.64057 11.4738 8.39052 11.7238C8.14048 11.9739 8 12.313 8 12.6667C8 13.0203 8.14048 13.3594 8.39052 13.6095C8.64057 13.8595 8.97971 14 9.33333 14H17.3333C17.687 14 18.0261 13.8595 18.2761 13.6095C18.5262 13.3594 18.6667 13.0203 18.6667 12.6667C18.6667 12.313 18.5262 11.9739 18.2761 11.7238C18.0261 11.4738 17.687 11.3333 17.3333 11.3333ZM22.6667 3.33332H18.6667V1.99999C18.6667 1.64637 18.5262 1.30723 18.2761 1.05718C18.0261 0.807132 17.687 0.666656 17.3333 0.666656C16.9797 0.666656 16.6406 0.807132 16.3905 1.05718C16.1405 1.30723 16 1.64637 16 1.99999V3.33332H13.3333V1.99999C13.3333 1.64637 13.1929 1.30723 12.9428 1.05718C12.6928 0.807132 12.3536 0.666656 12 0.666656C11.6464 0.666656 11.3072 0.807132 11.0572 1.05718C10.8071 1.30723 10.6667 1.64637 10.6667 1.99999V3.33332H8V1.99999C8 1.64637 7.85952 1.30723 7.60948 1.05718C7.35943 0.807132 7.02029 0.666656 6.66667 0.666656C6.31304 0.666656 5.97391 0.807132 5.72386 1.05718C5.47381 1.30723 5.33333 1.64637 5.33333 1.99999V3.33332H1.33333C0.979711 3.33332 0.640573 3.4738 0.390524 3.72385C0.140476 3.9739 0 4.31303 0 4.66666V23.3333C0 24.3942 0.421428 25.4116 1.17157 26.1618C1.92172 26.9119 2.93913 27.3333 4 27.3333H20C21.0609 27.3333 22.0783 26.9119 22.8284 26.1618C23.5786 25.4116 24 24.3942 24 23.3333V4.66666C24 4.31303 23.8595 3.9739 23.6095 3.72385C23.3594 3.4738 23.0203 3.33332 22.6667 3.33332V3.33332ZM21.3333 23.3333C21.3333 23.6869 21.1929 24.0261 20.9428 24.2761C20.6928 24.5262 20.3536 24.6667 20 24.6667H4C3.64638 24.6667 3.30724 24.5262 3.05719 24.2761C2.80714 24.0261 2.66667 23.6869 2.66667 23.3333V5.99999H5.33333V7.33332C5.33333 7.68695 5.47381 8.02608 5.72386 8.27613C5.97391 8.52618 6.31304 8.66666 6.66667 8.66666C7.02029 8.66666 7.35943 8.52618 7.60948 8.27613C7.85952 8.02608 8 7.68695 8 7.33332V5.99999H10.6667V7.33332C10.6667 7.68695 10.8071 8.02608 11.0572 8.27613C11.3072 8.52618 11.6464 8.66666 12 8.66666C12.3536 8.66666 12.6928 8.52618 12.9428 8.27613C13.1929 8.02608 13.3333 7.68695 13.3333 7.33332V5.99999H16V7.33332C16 7.68695 16.1405 8.02608 16.3905 8.27613C16.6406 8.52618 16.9797 8.66666 17.3333 8.66666C17.687 8.66666 18.0261 8.52618 18.2761 8.27613C18.5262 8.02608 18.6667 7.68695 18.6667 7.33332V5.99999H21.3333V23.3333Z" fill="#A53DFF"/>
</svg>
