<svg aria-hidden="true" style="position: absolute; width: 0; height: 0; overflow: hidden;" version="1.1" xmlns="http://www.w3.org/2000/svg" xmlns:xlink="http://www.w3.org/1999/xlink">
<defs>
<symbol id="icon-arrow" viewBox="0 0 32 32">
<path d="M31.787 14.987c-0.127-0.327-0.317-0.626-0.56-0.88l-13.333-13.333c-0.249-0.249-0.544-0.446-0.869-0.58s-0.673-0.204-1.025-0.204c-0.71 0-1.391 0.282-1.893 0.784-0.249 0.249-0.446 0.544-0.58 0.869s-0.204 0.673-0.204 1.025c0 0.71 0.282 1.391 0.784 1.893l8.8 8.773h-20.24c-0.707 0-1.386 0.281-1.886 0.781s-0.781 1.178-0.781 1.886c0 0.707 0.281 1.386 0.781 1.886s1.178 0.781 1.886 0.781h20.24l-8.8 8.773c-0.25 0.248-0.448 0.543-0.584 0.868s-0.205 0.674-0.205 1.026 0.070 0.701 0.205 1.026c0.135 0.325 0.334 0.62 0.584 0.868 0.248 0.25 0.543 0.448 0.868 0.584s0.674 0.205 1.026 0.205c0.352 0 0.701-0.070 1.026-0.205s0.62-0.334 0.868-0.584l13.333-13.333c0.243-0.254 0.433-0.553 0.56-0.88 0.267-0.649 0.267-1.377 0-2.027z"></path>
</symbol>
<symbol id="icon-be" viewBox="0 0 32 32">
<path d="M12.913 14.275c0 0 3.028-0.222 3.028-3.726s-2.477-5.215-5.615-5.215h-10.325v19.585h10.325c0 0 6.303 0.196 6.303-5.781 0 0 0.275-4.863-3.716-4.863v0zM9.582 8.814h0.743c0 0 1.403 0 1.403 2.038s-0.825 2.333-1.762 2.333h-5.418v-4.371h5.032zM10.034 21.437h-5.484v-5.234h5.776c0 0 2.092-0.027 2.092 2.69 0 2.291-1.562 2.527-2.384 2.544v0zM25.035 10.316c-7.631 0-7.624 7.525-7.624 7.525s-0.524 7.486 7.624 7.486c0 0 6.789 0.383 6.789-5.208h-3.492c0 0 0.116 2.105-3.181 2.105 0 0-3.492 0.231-3.492-3.407h10.282c0 0 1.125-8.502-6.906-8.502zM21.621 16.204c0 0 0.426-3.019 3.492-3.019s3.026 3.019 3.026 3.019h-6.518zM28.952 8.899h-8.186v-2.412h8.186v2.412z"></path>
</symbol>
<symbol id="icon-download" viewBox="0 0 32 32">
<path d="M28 18.667c-0.354 0-0.693 0.141-0.943 0.391s-0.391 0.589-0.391 0.943v5.333c0 0.354-0.141 0.693-0.391 0.943s-0.589 0.391-0.943 0.391h-18.667c-0.354 0-0.693-0.141-0.943-0.391s-0.391-0.589-0.391-0.943v-5.333c0-0.354-0.14-0.693-0.391-0.943s-0.589-0.391-0.943-0.391c-0.354 0-0.693 0.141-0.943 0.391s-0.391 0.589-0.391 0.943v5.333c0 1.061 0.421 2.078 1.172 2.828s1.768 1.172 2.828 1.172h18.667c1.061 0 2.078-0.421 2.828-1.172s1.172-1.768 1.172-2.828v-5.333c0-0.354-0.141-0.693-0.391-0.943s-0.589-0.391-0.943-0.391zM15.053 20.947c0.127 0.121 0.276 0.217 0.44 0.28 0.16 0.071 0.332 0.107 0.507 0.107s0.347-0.036 0.507-0.107c0.164-0.063 0.313-0.159 0.44-0.28l5.333-5.333c0.251-0.251 0.392-0.592 0.392-0.947s-0.141-0.696-0.392-0.947c-0.251-0.251-0.592-0.392-0.947-0.392s-0.696 0.141-0.947 0.392l-3.053 3.067v-12.787c0-0.354-0.141-0.693-0.391-0.943s-0.589-0.391-0.943-0.391c-0.354 0-0.693 0.14-0.943 0.391s-0.391 0.589-0.391 0.943v12.787l-3.053-3.067c-0.124-0.124-0.272-0.223-0.434-0.29s-0.337-0.102-0.512-0.102-0.35 0.035-0.512 0.102c-0.162 0.067-0.31 0.166-0.434 0.29s-0.223 0.272-0.29 0.434c-0.067 0.162-0.102 0.336-0.102 0.512s0.035 0.35 0.102 0.512c0.067 0.163 0.166 0.31 0.29 0.434l5.333 5.333z"></path>
</symbol>
<symbol id="icon-facebook" viewBox="0 0 29 32">
<path d="M21.579 0.4h-4.891c-2.902 0-6.13 1.245-6.13 5.534 0.014 1.495 0 2.926 0 4.537h-3.358v5.447h3.461v15.682h6.36v-15.786h4.198l0.38-5.359h-4.688c0 0 0.011-2.384 0-3.076 0-1.695 1.73-1.598 1.834-1.598 0.823 0 2.424 0.002 2.835 0v-5.381h-0.002z"></path>
</symbol>
<symbol id="icon-in" viewBox="0 0 32 32">
<path d="M0 3.717c0-1.077 0.36-1.966 1.081-2.667s1.658-1.050 2.811-1.050c1.133 0 2.049 0.345 2.749 1.034 0.721 0.711 1.081 1.638 1.081 2.78 0 1.034-0.35 1.896-1.050 2.586-0.721 0.711-1.668 1.067-2.842 1.067h-0.031c-1.133 0-2.049-0.356-2.749-1.067s-1.050-1.605-1.050-2.683zM0.402 31.999v-21.592h6.857v21.592h-6.857zM11.058 31.999h6.857v-12.057c0-0.754 0.082-1.336 0.247-1.745 0.288-0.733 0.726-1.352 1.313-1.859s1.323-0.76 2.209-0.76c2.306 0 3.46 1.627 3.46 4.881v11.539h6.857v-12.38c0-3.189-0.721-5.608-2.162-7.257s-3.346-2.473-5.714-2.473c-2.656 0-4.726 1.196-6.209 3.588v0.065h-0.031l0.031-0.065v-3.071h-6.857c0.041 0.69 0.062 2.834 0.062 6.432s-0.021 8.652-0.062 15.16z"></path>
</symbol>
<symbol id="icon-instagram" viewBox="0 0 32 32">
<path d="M10.668 16c0-2.945 2.387-5.334 5.332-5.334s5.334 2.388 5.334 5.334-2.388 5.334-5.334 5.334c-2.945 0-5.332-2.388-5.332-5.334zM7.784 16c0 4.538 3.678 8.216 8.216 8.216s8.216-3.678 8.216-8.216c0-4.538-3.678-8.216-8.216-8.216s-8.216 3.678-8.216 8.216zM22.621 7.458c0 1.060 0.86 1.92 1.921 1.92 1.060 0 1.921-0.861 1.921-1.921s-0.859-1.919-1.921-1.919c-1.061 0-1.921 0.859-1.921 1.919zM9.535 29.024c-1.56-0.071-2.408-0.331-2.971-0.551-0.747-0.291-1.28-0.637-1.84-1.197-0.56-0.56-0.907-1.092-1.197-1.839-0.22-0.564-0.479-1.411-0.551-2.971-0.078-1.687-0.093-2.193-0.093-6.466s0.017-4.778 0.093-6.466c0.071-1.56 0.332-2.406 0.551-2.971 0.291-0.747 0.637-1.28 1.197-1.84 0.56-0.56 1.092-0.907 1.84-1.197 0.564-0.22 1.411-0.479 2.971-0.551 1.687-0.078 2.193-0.093 6.465-0.093 4.273 0 4.778 0.017 6.466 0.093 1.56 0.071 2.406 0.332 2.971 0.551 0.747 0.289 1.279 0.637 1.84 1.197 0.56 0.56 0.906 1.093 1.197 1.84 0.22 0.564 0.479 1.411 0.551 2.971 0.078 1.688 0.093 2.193 0.093 6.466 0 4.271-0.015 4.778-0.093 6.466-0.071 1.56-0.332 2.408-0.551 2.971-0.291 0.747-0.637 1.279-1.197 1.839s-1.093 0.906-1.84 1.197c-0.564 0.22-1.411 0.479-2.971 0.551-1.687 0.078-2.193 0.093-6.466 0.093-4.271 0-4.778-0.015-6.465-0.093v0zM9.404 0.097c-1.703 0.078-2.867 0.348-3.884 0.743-1.052 0.408-1.944 0.956-2.834 1.846-0.889 0.889-1.437 1.781-1.846 2.834-0.395 1.017-0.666 2.18-0.743 3.884-0.079 1.706-0.097 2.251-0.097 6.596s0.018 4.89 0.097 6.596c0.078 1.703 0.348 2.866 0.743 3.884 0.408 1.052 0.955 1.945 1.846 2.834 0.889 0.889 1.781 1.436 2.834 1.846 1.018 0.395 2.18 0.666 3.884 0.743 1.707 0.078 2.251 0.097 6.596 0.097 4.346 0 4.89-0.018 6.596-0.097 1.703-0.078 2.866-0.348 3.884-0.743 1.052-0.41 1.944-0.956 2.834-1.846 0.889-0.889 1.436-1.782 1.846-2.834 0.395-1.017 0.667-2.18 0.743-3.884 0.078-1.707 0.096-2.251 0.096-6.596s-0.018-4.89-0.096-6.596c-0.078-1.703-0.348-2.867-0.743-3.884-0.41-1.052-0.956-1.944-1.846-2.834-0.889-0.889-1.782-1.437-2.833-1.846-1.018-0.395-2.181-0.667-3.884-0.743-1.706-0.078-2.251-0.097-6.596-0.097-4.346 0-4.89 0.018-6.598 0.097z"></path>
</symbol>
<symbol id="icon-location" viewBox="0 0 27 32">
<path d="M22.857 3.779c-2.425-2.425-5.714-3.787-9.143-3.787s-6.718 1.362-9.143 3.787-3.787 5.714-3.787 9.143c0 3.429 1.362 6.718 3.787 9.143l8.030 8.046c0.142 0.143 0.31 0.256 0.496 0.334s0.385 0.117 0.586 0.117 0.4-0.040 0.586-0.117c0.186-0.077 0.354-0.191 0.496-0.334l8.091-8.122c2.415-2.415 3.771-5.69 3.771-9.105s-1.357-6.69-3.771-9.105zM20.678 19.81l-6.964 6.994-6.964-6.994c-1.376-1.377-2.312-3.131-2.692-5.040s-0.184-3.888 0.562-5.686 2.007-3.335 3.626-4.416c1.619-1.081 3.521-1.658 5.468-1.658s3.849 0.577 5.468 1.658c1.619 1.081 2.88 2.618 3.626 4.416s0.941 3.777 0.562 5.686c-0.379 1.909-1.316 3.663-2.692 5.040zM9.143 8.244c-1.23 1.234-1.921 2.905-1.921 4.648s0.691 3.414 1.921 4.648c0.914 0.916 2.078 1.541 3.346 1.797s2.583 0.133 3.781-0.355c1.198-0.488 2.225-1.319 2.952-2.389s1.122-2.331 1.136-3.624c0.007-0.864-0.16-1.72-0.489-2.518s-0.816-1.522-1.431-2.129c-0.604-0.618-1.324-1.11-2.119-1.448s-1.649-0.516-2.513-0.523-1.721 0.157-2.521 0.482c-0.8 0.325-1.528 0.806-2.142 1.414zM16.29 15.375c-0.578 0.586-1.341 0.954-2.159 1.040s-1.641-0.115-2.328-0.569c-0.687-0.454-1.194-1.132-1.436-1.918s-0.203-1.633 0.11-2.394c0.313-0.761 0.88-1.39 1.606-1.779s1.563-0.514 2.37-0.354c0.807 0.16 1.534 0.596 2.055 1.233s0.806 1.435 0.804 2.257c-0.022 0.941-0.417 1.834-1.097 2.484h0.076z"></path>
</symbol>
<symbol id="icon-mir" viewBox="0 0 32 32">
<path d="M0 16c0-2.901 0.715-5.579 2.144-8.032s3.371-4.395 5.824-5.824c2.453-1.429 5.131-2.144 8.032-2.144s5.579 0.715 8.032 2.144c2.453 1.429 4.395 3.371 5.824 5.824s2.144 5.131 2.144 8.032c0 2.901-0.715 5.579-2.144 8.032s-3.371 4.395-5.824 5.824c-2.453 1.429-5.131 2.144-8.032 2.144s-5.579-0.715-8.032-2.144c-2.453-1.429-4.395-3.371-5.824-5.824s-2.144-5.131-2.144-8.032zM2.656 16c0 3.328 1.12 6.261 3.36 8.8 1.024-2.005 2.645-3.915 4.864-5.728s4.384-2.955 6.496-3.424c-0.32-0.747-0.629-1.419-0.928-2.016-3.669 1.173-7.637 1.76-11.904 1.76-0.832 0-1.451-0.011-1.856-0.032 0 0.085-0.005 0.192-0.016 0.32s-0.016 0.235-0.016 0.32zM3.072 12.704c0.469 0.043 1.163 0.064 2.080 0.064 3.563 0 6.944-0.48 10.144-1.44-1.621-2.88-3.403-5.28-5.344-7.2-1.685 0.853-3.131 2.037-4.336 3.552s-2.053 3.189-2.544 5.024zM7.84 26.528c2.411 1.877 5.131 2.816 8.16 2.816 1.579 0 3.147-0.299 4.704-0.896-0.427-3.648-1.259-7.179-2.496-10.592-1.963 0.427-3.941 1.504-5.936 3.232s-3.472 3.541-4.432 5.44zM12.736 3.104c1.877 1.941 3.616 4.363 5.216 7.264 2.901-1.216 5.088-2.763 6.56-4.64-2.475-2.048-5.312-3.072-8.512-3.072-1.088 0-2.176 0.149-3.264 0.448zM19.104 12.64c0.32 0.683 0.683 1.547 1.088 2.592 1.579-0.149 3.296-0.224 5.152-0.224 1.323 0 2.635 0.032 3.936 0.096-0.171-2.901-1.216-5.483-3.136-7.744-1.387 2.069-3.733 3.829-7.040 5.28zM20.992 17.472c1.088 3.157 1.824 6.4 2.208 9.728 1.685-1.088 3.061-2.485 4.128-4.192s1.707-3.552 1.92-5.536c-1.557-0.107-2.976-0.16-4.256-0.16-1.173 0-2.507 0.053-4 0.16z"></path>
</symbol>
<symbol id="icon-research" viewBox="0 0 27 32">
<path d="M19.809 19.048h-12.19c-0.404 0-0.792 0.16-1.077 0.446s-0.446 0.673-0.446 1.078 0.161 0.792 0.446 1.078c0.286 0.286 0.673 0.446 1.077 0.446h12.19c0.404 0 0.792-0.161 1.078-0.446s0.446-0.673 0.446-1.078-0.161-0.792-0.446-1.078c-0.286-0.286-0.673-0.446-1.078-0.446zM19.809 12.952h-9.143c-0.404 0-0.792 0.161-1.078 0.446s-0.446 0.673-0.446 1.078c0 0.404 0.161 0.792 0.446 1.078s0.673 0.446 1.078 0.446h9.143c0.404 0 0.792-0.161 1.078-0.446s0.446-0.673 0.446-1.078c0-0.404-0.161-0.792-0.446-1.078s-0.673-0.446-1.078-0.446zM25.905 3.809h-4.571v-1.524c0-0.404-0.161-0.792-0.446-1.077s-0.673-0.446-1.078-0.446c-0.404 0-0.792 0.161-1.078 0.446s-0.446 0.673-0.446 1.077v1.524h-3.048v-1.524c0-0.404-0.16-0.792-0.446-1.077s-0.673-0.446-1.078-0.446-0.792 0.161-1.078 0.446c-0.286 0.286-0.446 0.673-0.446 1.077v1.524h-3.048v-1.524c0-0.404-0.161-0.792-0.446-1.077s-0.673-0.446-1.077-0.446c-0.404 0-0.792 0.161-1.077 0.446s-0.446 0.673-0.446 1.077v1.524h-4.571c-0.404 0-0.792 0.161-1.077 0.446s-0.446 0.673-0.446 1.077v21.333c0 1.212 0.482 2.375 1.339 3.233s2.020 1.339 3.232 1.339h18.286c1.212 0 2.375-0.482 3.232-1.339s1.339-2.020 1.339-3.233v-21.333c0-0.404-0.161-0.792-0.446-1.077s-0.673-0.446-1.078-0.446v0zM24.381 26.667c0 0.404-0.16 0.792-0.446 1.078s-0.673 0.446-1.078 0.446h-18.286c-0.404 0-0.792-0.161-1.077-0.446s-0.446-0.673-0.446-1.078v-19.809h3.048v1.524c0 0.404 0.161 0.792 0.446 1.078s0.673 0.446 1.077 0.446c0.404 0 0.792-0.161 1.078-0.446s0.446-0.673 0.446-1.078v-1.524h3.048v1.524c0 0.404 0.16 0.792 0.446 1.078s0.673 0.446 1.078 0.446 0.792-0.161 1.078-0.446c0.286-0.286 0.446-0.673 0.446-1.078v-1.524h3.048v1.524c0 0.404 0.161 0.792 0.446 1.078s0.673 0.446 1.078 0.446c0.404 0 0.792-0.161 1.078-0.446s0.446-0.673 0.446-1.078v-1.524h3.048v19.809z"></path>
</symbol>
<symbol id="icon-submit" viewBox="0 0 32 32">
<path d="M29.344 11.712l-22.4-11.2c-0.884-0.44-1.882-0.597-2.858-0.449s-1.883 0.594-2.597 1.276c-0.714 0.682-1.2 1.568-1.392 2.537s-0.080 1.973 0.319 2.876l3.84 8.592c0.087 0.208 0.132 0.431 0.132 0.656s-0.045 0.448-0.132 0.656l-3.84 8.592c-0.325 0.731-0.463 1.531-0.4 2.329s0.324 1.566 0.759 2.237c0.436 0.671 1.032 1.222 1.735 1.604s1.49 0.582 2.29 0.582c0.749-0.007 1.487-0.182 2.16-0.512l22.4-11.2c0.795-0.4 1.462-1.012 1.929-1.769s0.714-1.629 0.714-2.519c0-0.889-0.247-1.761-0.714-2.518s-1.135-1.37-1.929-1.769h-0.016zM27.92 17.424l-22.4 11.2c-0.294 0.141-0.624 0.189-0.947 0.137s-0.621-0.201-0.856-0.427c-0.235-0.226-0.395-0.519-0.459-0.839s-0.028-0.652 0.102-0.951l3.824-8.592c0.050-0.115 0.092-0.232 0.128-0.352h11.024c0.424 0 0.831-0.168 1.131-0.469s0.469-0.707 0.469-1.131-0.169-0.831-0.469-1.131c-0.3-0.3-0.707-0.469-1.131-0.469h-11.024c-0.036-0.12-0.079-0.237-0.128-0.352l-3.824-8.592c-0.13-0.299-0.165-0.631-0.102-0.951s0.224-0.613 0.459-0.839c0.235-0.226 0.534-0.375 0.856-0.427s0.652-0.004 0.947 0.137l22.4 11.2c0.262 0.134 0.482 0.338 0.636 0.589s0.235 0.54 0.235 0.834c0 0.295-0.081 0.583-0.235 0.835s-0.374 0.455-0.636 0.589z"></path>
</symbol>
</defs>
</svg>
